# Blender 5.1.2
# www.blender.org
o Cone
v 0.839920 -0.000069 -0.196596
v 1.121653 -0.000069 -0.156089
v 1.380561 -0.000069 -0.037850
v 1.595670 -0.000069 0.148543
v 1.749552 -0.000069 0.387989
v 1.829741 -0.000069 0.661089
v 1.829741 -0.000069 0.945719
v 1.749552 -0.000069 1.218819
v 1.595670 -0.000069 1.458265
v 1.380561 -0.000069 1.644657
v 1.121653 -0.000069 1.762897
v 0.839920 -0.000069 1.803404
v 0.558187 -0.000069 1.762897
v 0.299279 -0.000069 1.644657
v 0.084171 -0.000069 1.458265
v -0.069712 -0.000069 1.218819
v -0.149901 -0.000069 0.945719
v -0.149901 -0.000069 0.661089
v -0.069712 -0.000069 0.387989
v 0.084171 -0.000069 0.148543
v 0.299279 -0.000069 -0.037850
v 0.558187 -0.000069 -0.156089
v 0.839920 1.999931 0.803404
vn 0.1275 0.4436 -0.8871
vn 0.3723 0.4436 -0.8153
vn 0.5869 0.4436 -0.6773
vn 0.7540 0.4436 -0.4845
vn 0.8599 0.4436 -0.2525
vn 0.8962 0.4436 -0.0000
vn 0.8599 0.4436 0.2525
vn 0.7540 0.4436 0.4845
vn 0.5869 0.4436 0.6773
vn 0.3723 0.4436 0.8153
vn 0.1275 0.4436 0.8871
vn -0.1275 0.4436 0.8871
vn -0.3723 0.4436 0.8153
vn -0.5869 0.4436 0.6773
vn -0.7540 0.4436 0.4845
vn -0.8599 0.4436 0.2525
vn -0.8962 0.4436 -0.0000
vn -0.8599 0.4436 -0.2525
vn -0.7540 0.4436 -0.4845
vn -0.5869 0.4436 -0.6773
vn -0.0000 -1.0000 -0.0000
vn -0.3723 0.4436 -0.8153
vn -0.1275 0.4436 -0.8871
vt 0.250000 0.490000
vt 0.250000 0.250000
vt 0.317616 0.480278
vt 0.379754 0.451901
vt 0.431380 0.407167
vt 0.468312 0.349700
vt 0.487557 0.284156
vt 0.487557 0.215844
vt 0.468312 0.150300
vt 0.431380 0.092833
vt 0.379754 0.048099
vt 0.317616 0.019722
vt 0.250000 0.010000
vt 0.182384 0.019722
vt 0.120246 0.048099
vt 0.068620 0.092833
vt 0.031688 0.150300
vt 0.012443 0.215844
vt 0.012443 0.284156
vt 0.031688 0.349700
vt 0.068620 0.407167
vt 0.120246 0.451901
vt 0.750000 0.490000
vt 0.817616 0.480278
vt 0.879754 0.451901
vt 0.931380 0.407167
vt 0.968312 0.349700
vt 0.987557 0.284156
vt 0.987557 0.215844
vt 0.968312 0.150300
vt 0.931380 0.092833
vt 0.879754 0.048099
vt 0.817616 0.019722
vt 0.750000 0.010000
vt 0.682384 0.019722
vt 0.620246 0.048099
vt 0.568620 0.092833
vt 0.531688 0.150300
vt 0.512443 0.215844
vt 0.512443 0.284156
vt 0.531688 0.349700
vt 0.568620 0.407167
vt 0.620246 0.451901
vt 0.682384 0.480278
vt 0.182384 0.480278
s 0
f 1/1/1 23/2/1 2/3/1
f 2/3/2 23/2/2 3/4/2
f 3/4/3 23/2/3 4/5/3
f 4/5/4 23/2/4 5/6/4
f 5/6/5 23/2/5 6/7/5
f 6/7/6 23/2/6 7/8/6
f 7/8/7 23/2/7 8/9/7
f 8/9/8 23/2/8 9/10/8
f 9/10/9 23/2/9 10/11/9
f 10/11/10 23/2/10 11/12/10
f 11/12/11 23/2/11 12/13/11
f 12/13/12 23/2/12 13/14/12
f 13/14/13 23/2/13 14/15/13
f 14/15/14 23/2/14 15/16/14
f 15/16/15 23/2/15 16/17/15
f 16/17/16 23/2/16 17/18/16
f 17/18/17 23/2/17 18/19/17
f 18/19/18 23/2/18 19/20/18
f 19/20/19 23/2/19 20/21/19
f 20/21/20 23/2/20 21/22/20
f 1/23/21 2/24/21 3/25/21 4/26/21 5/27/21 6/28/21 7/29/21 8/30/21 9/31/21 10/32/21 11/33/21 12/34/21 13/35/21 14/36/21 15/37/21 16/38/21 17/39/21 18/40/21 19/41/21 20/42/21 21/43/21 22/44/21
f 21/22/22 23/2/22 22/45/22
f 22/45/23 23/2/23 1/1/23
