# Blender 5.1.2
# www.blender.org
o Diamond
v 0.000000 0.192391 0.000000
v 0.000000 -0.957609 0.000000
v 0.600000 0.192391 0.000000
v 1.000000 -0.157609 0.000000
v 0.575696 0.192391 0.169040
v 0.959493 -0.157609 0.281732
v 0.504752 0.192391 0.324385
v 0.841254 -0.157609 0.540641
v 0.392917 0.192391 0.453450
v 0.654861 -0.157609 0.755750
v 0.249249 0.192391 0.545779
v 0.415415 -0.157609 0.909632
v 0.085389 0.192391 0.593893
v 0.142315 -0.157609 0.989821
v -0.085389 0.192391 0.593893
v -0.142315 -0.157609 0.989821
v -0.249249 0.192391 0.545779
v -0.415415 -0.157609 0.909632
v -0.392916 0.192391 0.453450
v -0.654861 -0.157609 0.755750
v -0.504752 0.192391 0.324385
v -0.841253 -0.157609 0.540641
v -0.575696 0.192391 0.169039
v -0.959493 -0.157609 0.281732
v -0.600000 0.192391 0.000000
v -1.000000 -0.157609 0.000000
v -0.575696 0.192391 -0.169039
v -0.959493 -0.157609 -0.281732
v -0.504752 0.192391 -0.324384
v -0.841254 -0.157609 -0.540641
v -0.392917 0.192391 -0.453450
v -0.654861 -0.157609 -0.755749
v -0.249249 0.192391 -0.545779
v -0.415415 -0.157609 -0.909632
v -0.085389 0.192391 -0.593893
v -0.142315 -0.157609 -0.989821
v 0.085389 0.192391 -0.593893
v 0.142315 -0.157609 -0.989821
v 0.249249 0.192391 -0.545779
v 0.415415 -0.157609 -0.909632
v 0.392916 0.192391 -0.453450
v 0.654860 -0.157609 -0.755750
v 0.504752 0.192391 -0.324385
v 0.841254 -0.157609 -0.540641
v 0.575696 0.192391 -0.169040
v 0.959493 -0.157609 -0.281733
vn 0.6222 -0.7777 -0.0895
vn 0.6222 -0.7777 0.0895
vn 0.5718 -0.7777 0.2611
vn 0.4751 -0.7777 0.4116
vn 0.3398 -0.7777 0.5288
vn 0.1771 -0.7777 0.6031
vn -0.0000 -0.7777 0.6286
vn -0.1771 -0.7777 0.6031
vn -0.3398 -0.7777 0.5288
vn -0.4751 -0.7777 0.4116
vn -0.5718 -0.7777 0.2611
vn -0.6222 -0.7777 0.0895
vn -0.6222 -0.7777 -0.0895
vn -0.5718 -0.7777 -0.2611
vn -0.4751 -0.7777 -0.4116
vn -0.3398 -0.7777 -0.5288
vn -0.1771 -0.7777 -0.6031
vn -0.0000 -0.7777 -0.6286
vn 0.1771 -0.7777 -0.6031
vn 0.3398 -0.7777 -0.5288
vn 0.4751 -0.7777 -0.4116
vn 0.5718 -0.7777 -0.2611
vn 0.6556 0.7492 -0.0943
vn 0.6556 0.7492 0.0943
vn 0.6025 0.7492 0.2751
vn 0.5005 0.7492 0.4337
vn 0.3581 0.7492 0.5572
vn 0.1866 0.7492 0.6355
vn -0.0000 0.7492 0.6623
vn -0.1866 0.7492 0.6355
vn -0.3581 0.7492 0.5572
vn -0.5005 0.7492 0.4337
vn -0.6025 0.7492 0.2751
vn -0.6556 0.7492 0.0943
vn -0.6556 0.7492 -0.0943
vn -0.6025 0.7492 -0.2751
vn -0.5005 0.7492 -0.4337
vn -0.3581 0.7492 -0.5572
vn -0.1866 0.7492 -0.6355
vn -0.0000 0.7492 -0.6623
vn 0.1866 0.7492 -0.6355
vn 0.3581 0.7492 -0.5572
vn 0.5005 0.7492 -0.4337
vn 0.6025 0.7492 -0.2751
vn -0.0000 1.0000 -0.0000
vt 0.314024 0.197467
vt -0.000000 0.298733
vt 0.283778 0.130400
vt 0.327439 0.268855
vt 0.322935 0.338781
vt 0.300877 0.401580
vt 0.263054 0.452165
vt 0.212528 0.486437
vt 0.327439 0.298733
vt 0.327439 0.015183
vt 0.386573 -0.000000
vt 0.449526 0.005136
vt 0.511197 0.030175
vt 0.566590 0.073089
vt 0.611217 0.130400
vt 0.641463 0.197467
vt 0.654877 0.268855
vt 0.650373 0.338781
vt 0.628316 0.401580
vt 0.590492 0.452165
vt 0.539966 0.486437
vt -0.000000 0.015183
vt 0.059135 -0.000000
vt 0.122088 0.005136
vt 0.183759 0.030175
vt 0.239151 0.073089
vt 0.145990 0.775311
vt 0.016851 0.820813
vt -0.000000 0.749197
vt 0.135879 0.732341
vt 0.165391 0.814257
vt 0.049187 0.885723
vt 0.192513 0.846025
vt 0.094390 0.938669
vt 0.225157 0.868040
vt 0.148796 0.975362
vt 0.260678 0.878521
vt 0.207999 0.992829
vt 0.296200 0.876616
vt 0.267201 0.989655
vt 0.474501 0.486437
vt 0.540098 0.582955
vt 0.506034 0.593204
vt 0.417727 0.503518
vt 0.476167 0.615104
vt 0.367950 0.540018
vt 0.452918 0.646881
vt 0.329201 0.592980
vt 0.438170 0.685961
vt 0.304621 0.658113
vt 0.433117 0.729178
vt 0.296200 0.730142
vt 0.438170 0.773031
vt 0.304621 0.803229
vt 0.452918 0.813966
vt 0.329201 0.871455
vt 0.476167 0.848668
vt 0.367950 0.929292
vt 0.506034 0.874326
vt 0.417727 0.972054
vt 0.540098 0.888860
vt 0.474501 0.996278
vt 0.575600 0.891093
vt 0.533672 1.000000
vt 0.148796 0.486437
vt 0.225157 0.574685
vt 0.192513 0.588820
vt 0.094390 0.509995
vt 0.165392 0.614040
vt 0.049187 0.552028
vt 0.145990 0.648302
vt 0.016851 0.609131
vt 0.135879 0.688830
vt -0.000000 0.676678
vt 0.260678 0.725651
vt 0.691879 0.449317
vt 0.654877 0.582611
vt 0.654877 0.435857
vt 0.575600 0.585189
vt 0.557849 0.737024
vt 0.750164 -0.000000
vt 0.750164 0.152870
vt 0.714642 0.010480
vt 0.681998 0.032496
vt 0.654877 0.064264
vt 0.734962 0.187039
vt 0.654877 0.282987
vt 0.696610 0.165183
vt 0.654877 0.152870
vt 0.296200 0.583261
vt 0.260678 0.572781
vt 0.690399 0.282987
vt 0.690399 0.435857
vt 0.654877 0.293468
s 0
f 4/1/1 2/2/1 46/3/1
f 2/2/2 4/1/2 6/4/2
f 2/2/3 6/4/3 8/5/3
f 2/2/4 8/5/4 10/6/4
f 2/2/5 10/6/5 12/7/5
f 2/2/6 12/7/6 14/8/6
f 2/9/7 14/10/7 16/11/7
f 2/9/8 16/11/8 18/12/8
f 2/9/9 18/12/9 20/13/9
f 2/9/10 20/13/10 22/14/10
f 2/9/11 22/14/11 24/15/11
f 2/9/12 24/15/12 26/16/12
f 2/9/13 26/16/13 28/17/13
f 2/9/14 28/17/14 30/18/14
f 2/9/15 30/18/15 32/19/15
f 2/9/16 32/19/16 34/20/16
f 2/9/17 34/20/17 36/21/17
f 2/2/18 36/22/18 38/23/18
f 2/2/19 38/23/19 40/24/19
f 2/2/20 40/24/20 42/25/20
f 2/2/21 42/25/21 44/26/21
f 2/2/22 44/26/22 46/3/22
f 3/27/23 4/28/23 46/29/23 45/30/23
f 4/28/24 3/27/24 5/31/24 6/32/24
f 6/32/25 5/31/25 7/33/25 8/34/25
f 8/34/26 7/33/26 9/35/26 10/36/26
f 10/36/27 9/35/27 11/37/27 12/38/27
f 12/38/28 11/37/28 13/39/28 14/40/28
f 14/41/29 13/42/29 15/43/29 16/44/29
f 16/44/30 15/43/30 17/45/30 18/46/30
f 18/46/31 17/45/31 19/47/31 20/48/31
f 20/48/32 19/47/32 21/49/32 22/50/32
f 22/50/33 21/49/33 23/51/33 24/52/33
f 24/52/34 23/51/34 25/53/34 26/54/34
f 26/54/35 25/53/35 27/55/35 28/56/35
f 28/56/36 27/55/36 29/57/36 30/58/36
f 30/58/37 29/57/37 31/59/37 32/60/37
f 32/60/38 31/59/38 33/61/38 34/62/38
f 34/62/39 33/61/39 35/63/39 36/64/39
f 36/65/40 35/66/40 37/67/40 38/68/40
f 38/68/41 37/67/41 39/69/41 40/70/41
f 40/70/42 39/69/42 41/71/42 42/72/42
f 42/72/43 41/71/43 43/73/43 44/74/43
f 44/74/44 43/73/44 45/30/44 46/29/44
f 1/75/45 3/27/45 45/30/45
f 3/27/45 1/75/45 5/31/45
f 5/31/45 1/75/45 7/33/45
f 7/76/45 1/77/45 9/78/45
f 9/35/45 1/75/45 11/37/45
f 11/79/45 1/80/45 13/42/45
f 13/42/45 1/80/45 15/43/45
f 15/81/45 1/82/45 17/83/45
f 17/83/45 1/82/45 19/84/45
f 19/84/45 1/82/45 21/85/45
f 21/49/45 1/80/45 23/51/45
f 23/86/45 1/87/45 25/88/45
f 25/88/45 1/87/45 27/89/45
f 27/55/45 1/80/45 29/57/45
f 29/57/45 1/80/45 31/59/45
f 31/90/45 1/75/45 33/91/45
f 33/91/45 1/75/45 35/66/45
f 35/66/45 1/75/45 37/67/45
f 37/92/45 1/93/45 39/94/45
f 39/69/45 1/75/45 41/71/45
f 41/71/45 1/75/45 43/73/45
f 43/73/45 1/75/45 45/30/45
